$MeshFormat
4.1 0 8
$EndMeshFormat
$Entities
0 0 1 0
1 -2.949029909160572e-17 -0.009525000117719173 -1.454353304453093e-10 0.0251460000872612 0.00317499996162951 0.04191000014543533 0 0 
$EndEntities
$Nodes
1 60 1 60
2 1 0 60
1
2
3
4
5
6
7
8
9
10
11
12
13
14
15
16
17
18
19
20
21
22
23
24
25
26
27
28
29
30
31
32
33
34
35
36
37
38
39
40
41
42
43
44
45
46
47
48
49
50
51
52
53
54
55
56
57
58
59
60
0.008382000029087067 0 0.03352800011634827
0.008382000029087067 0 0.04191000014543533
0.01676400005817413 0 0.03352800011634827
0.01676400005817413 0 0.04191000014543533
0.008382000029087067 -0.00317499996162951 0.04191000014543533
0.008382000029087067 -0.00317499996162951 0.03352800011634827
0.01676400005817413 -0.00317499996162951 0.04191000014543533
0.01676400005817413 -0.00317499996162951 0.03352800011634827
0.01676400005817413 -0.009525000117719173 0.03352800011634827
0.01676400005817413 -0.009525000117719173 0.04191000014543533
0.008382000029087067 -0.009525000117719173 0.03352800011634827
-2.42861286636753e-17 -0.009525000117719173 0.04191000014543533
0.008382000029087067 -0.009525000117719173 0.0251460000872612
-2.949029909160572e-17 -0.009525000117719173 0.01676400005817413
0.0251460000872612 -0.009525000117719173 0.0251460000872612
0.01676400005817413 -0.009525000117719173 0.01676400005817413
0.0251460000872612 -0.009525000117719173 -1.454353304453093e-10
0.01676400005817413 -0.009525000117719173 0.008382000029087067
0.008382000029087067 -0.009525000117719173 -1.454353304453093e-10
0.008382000029087067 -0.009525000117719173 0.008382000029087067
0.01676400005817413 -0.00634999992325902 0.04191000014543533
0.01676400005817413 -0.00634999992325902 0.03352800011634827
-2.42861286636753e-17 -0.00634999992325902 0.04191000014543533
0.008382000029087067 -0.00634999992325902 0.03352800011634827
-2.949029909160572e-17 -0.00634999992325902 0.01676400005817413
0.008382000029087067 -0.00634999992325902 0.0251460000872612
0.01676400005817413 -0.00634999992325902 0.01676400005817413
0.0251460000872612 -0.00634999992325902 0.0251460000872612
0.01676400005817413 -0.00634999992325902 0.008382000029087067
0.0251460000872612 -0.00634999992325902 -1.454353304453093e-10
0.008382000029087067 -0.00634999992325902 0.008382000029087067
0.008382000029087067 -0.00634999992325902 -1.454353304453093e-10
0.008382000029087067 0 -2.908706608906186e-11
0.008382000029087067 0 0.008382000029087067
0.01676400005817413 0 -2.908706608906186e-11
0.01676400005817413 0 0.008382000029087067
0.008382000029087067 -0.00317499996162951 0.008382000029087067
0.008382000029087067 -0.00317499996162951 -2.908706608906186e-11
0.01676400005817413 -0.00317499996162951 0.008382000029087067
0.01676400005817413 -0.00317499996162951 -2.908706608906186e-11
0.01676400005817413 0.00317499996162951 0.008382000029087067
0.01676400005817413 0.00317499996162951 0
0.008382000029087067 0.00317499996162951 0.008382000029087067
0 0.00317499996162951 0
0.008382000029087067 0.00317499996162951 0.01676400005817413
-5.204170427930421e-18 0.00317499996162951 0.0251460000872612
0.0251460000872612 0.00317499996162951 0.01676400005817413
0.01676400005817413 0.00317499996162951 0.0251460000872612
0.0251460000872612 0.00317499996162951 0.04191000014543533
0.01676400005817413 0.00317499996162951 0.03352800011634827
0.008382000029087067 0.00317499996162951 0.04191000014543533
0.008382000029087067 0.00317499996162951 0.03352800011634827
0 3.837049081245603e-11 0
-5.204170427930421e-18 3.837049081245603e-11 0.0251460000872612
0.008382000029087067 3.837049081245603e-11 0.01676400005817413
0.01676400005817413 3.837049081245603e-11 0.0251460000872612
0.0251460000872612 3.837049081245603e-11 0.01676400005817413
0.0251460000872612 3.837049081245603e-11 0.04191000014543533
0.008382000029087067 -0.00634999992325902 0.04191000014543533
0.01676400005817413 -0.00634999992325902 -2.908706608906186e-11
$EndNodes
$Elements
1 136 1 136
2 1 2 136
1 1 2 3 
2 2 4 3 
3 5 6 7 
4 6 8 7 
5 8 6 3 
6 6 1 3 
7 6 5 1 
8 5 2 1 
9 7 8 4 
10 8 3 4 
11 5 7 2 
12 7 4 2 
13 9 10 11 
14 10 12 11 
15 11 12 13 
16 12 14 13 
17 13 14 15 
18 14 16 15 
19 15 16 17 
20 16 18 17 
21 17 18 19 
22 18 20 19 
23 21 22 23 
24 22 24 23 
25 23 24 25 
26 24 26 25 
27 25 26 27 
28 26 28 27 
29 27 28 29 
30 28 30 29 
31 29 30 31 
32 30 32 31 
33 25 27 14 
34 27 16 14 
35 27 29 16 
36 29 18 16 
37 29 31 18 
38 31 20 18 
39 31 32 20 
40 32 19 20 
41 32 30 19 
42 30 17 19 
43 30 28 17 
44 28 15 17 
45 21 23 10 
46 23 12 10 
47 23 25 12 
48 25 14 12 
49 28 26 15 
50 26 13 15 
51 22 21 9 
52 21 10 9 
53 24 22 11 
54 22 9 11 
55 26 24 13 
56 24 11 13 
57 33 34 35 
58 34 36 35 
59 37 38 39 
60 38 40 39 
61 40 38 35 
62 38 33 35 
63 38 37 33 
64 37 34 33 
65 39 40 36 
66 40 35 36 
67 37 39 34 
68 39 36 34 
69 41 42 43 
70 42 44 43 
71 43 44 45 
72 44 46 45 
73 45 46 47 
74 46 48 47 
75 47 48 49 
76 48 50 49 
77 49 50 51 
78 50 52 51 
79 35 36 53 
80 36 34 53 
81 53 34 54 
82 34 55 54 
83 54 55 56 
84 55 57 56 
85 56 57 3 
86 57 58 3 
87 3 58 1 
88 58 2 1 
89 54 56 46 
90 56 48 46 
91 56 3 48 
92 3 50 48 
93 3 1 50 
94 1 52 50 
95 1 2 52 
96 2 51 52 
97 2 58 51 
98 58 49 51 
99 58 57 49 
100 57 47 49 
101 35 53 42 
102 53 44 42 
103 53 54 44 
104 54 46 44 
105 57 55 47 
106 55 45 47 
107 36 35 41 
108 35 42 41 
109 34 36 43 
110 36 41 43 
111 55 34 45 
112 34 43 45 
113 6 5 8 
114 5 7 8 
115 59 24 21 
116 24 22 21 
117 22 24 8 
118 24 6 8 
119 24 59 6 
120 59 5 6 
121 21 22 7 
122 22 8 7 
123 59 21 5 
124 21 7 5 
125 38 37 40 
126 37 39 40 
127 31 32 29 
128 32 60 29 
129 60 32 40 
130 32 38 40 
131 32 31 38 
132 31 37 38 
133 29 60 39 
134 60 40 39 
135 31 29 37 
136 29 39 37 
$EndElements
